<?xml version="1.0" encoding="utf-8"?>
<!DOCTYPE svg PUBLIC "-//W3C//DTD SVG 1.0//EN" "http://www.w3.org/TR/2001/REC-SVG-20010904/DTD/svg10.dtd">
<svg version="1.0" xmlns="http://www.w3.org/2000/svg" width="4172px" height="4172px" viewBox="0 0 4172 4172" preserveAspectRatio="xMidYMid meet">
 <g fill="#000000">
  <path d="M1368 3036.80 c-20.60 -2.40 -43.80 -6.40 -55 -9.60 -2.20 -0.60 -12.60 -3.20 -23.20 -6 -10.40 -2.60 -27.20 -8 -37.40 -12 -10 -4 -18.80 -7.20 -19.40 -7.20 -3.20 0 -50.40 -23.80 -67 -33.60 -50.40 -30 -98.40 -71 -137.40 -117.40 -19.40 -23.40 -50.40 -70.80 -61.80 -95 -15 -32 -18.60 -40.20 -22.80 -53 -2.40 -7.60 -5.40 -15.20 -6.60 -16.40 -1 -1.40 -1.20 -2.60 -0.40 -2.60 0.80 0 0.60 -1.20 -0.60 -2.40 -2 -2.60 -11.80 -40.20 -17.40 -67.60 -9.20 -44 -9.60 -134 -1 -177 1.20 -5.40 3.40 -16.80 5 -25 7 -35.20 20.80 -77 34.80 -105.40 3.20 -6.80 7.20 -15.20 8.80 -19 3.80 -9 29.60 -51.60 41 -67.60 61.60 -86.40 154 -155 254.40 -188.60 62 -20.80 91.40 -25.60 160 -26.60 64.40 -0.80 89.60 2.20 143 16.60 27.40 7.20 34 9.40 44.40 14 3.60 1.60 13 5 21 7.60 11.20 3.60 14.80 5.60 15.60 8.80 1.20 5 -1.20 76.80 -3 91.20 -3 24.20 -11.40 73 -14.20 83 -6.60 23.40 -9.20 33.20 -9.80 36 -1.60 7 -9.60 31.20 -11 33 -0.80 1.20 -2.60 5.60 -4 10 -1.40 4.40 -3.20 8.80 -3.80 9.60 -0.80 0.80 -7.20 -4.80 -14.20 -12.60 -40.20 -45.60 -95.20 -76.80 -160 -91.40 -19.40 -4.40 -76.40 -5.20 -100 -1.40 -103 16.60 -189 86.80 -225.60 183.80 -8.80 23.60 -10.20 28.20 -14.40 53.20 -11.40 66.20 1.60 138.20 35 194.80 27.80 47.20 71 87.60 118.80 111.80 42.60 21.20 84.40 31.20 132.80 31.20 30.20 0 39.80 -1.20 69.40 -8.40 61.20 -14.80 119.80 -53.20 159.40 -104.80 26.40 -34 87.60 -158.80 105.60 -214.80 1.80 -6 4.80 -13.60 6.20 -17 4.60 -10 18.80 -58.20 27 -91 4.20 -17 8.60 -33.60 9.60 -37 5.40 -16.20 19.20 -104.40 23 -146 3.60 -38 5.40 -94.60 4.40 -128 -2 -54.80 -5.60 -104.80 -9.20 -124 -1 -5.40 -2.40 -14 -3 -19 -1.60 -11.60 -2 -14.40 -6.80 -42.40 -4.60 -26.40 -5.60 -31.60 -8.20 -41.60 -1 -3.80 -4.60 -18.60 -8 -33 -8.40 -35.80 -34.20 -117.80 -44.20 -140.20 -2 -4.40 -5.60 -13 -7.80 -19 -30.20 -76.80 -85.20 -174.80 -139.20 -248.20 -5 -6.80 -11 -16.40 -13.20 -21.40 -2.20 -5.20 -5.80 -12.80 -7.80 -17 -2.20 -4.40 -3.80 -8.60 -3.80 -9.60 0 -1 -1.80 -5.40 -4 -10.20 -7.80 -16.60 -18.20 -53.60 -24 -84.40 -5 -27 -5 -71.60 -0.20 -95 10.40 -48.80 31.80 -84.40 68.80 -115 24.80 -20.40 50.40 -34.20 87.40 -47.40 11.20 -3.80 53.40 -14.40 66 -16.40 3.80 -0.60 9.80 -1.60 13 -2.20 23.20 -4 134.20 -5.60 167 -2.60 23.60 2.20 68.80 7.60 72 8.60 1.60 0.60 6.60 1.40 11 2 4.40 0.60 10.20 1.60 13 2.20 2.80 0.40 7.20 1.20 10 1.80 2.80 0.60 10.40 2 17 3.20 23.80 4.20 89.80 20.20 133 32.60 33.60 9.40 129.20 41.40 141 47.20 2.20 1 12.20 5 22.20 8.80 10.20 3.80 22.40 8.80 27.20 11 5 2.20 13.80 5.80 19.60 8.20 5.80 2.40 14.80 6 19.80 8.40 5 2.20 13.20 5.80 18.20 8 54.20 23.20 177.40 86.60 235 121 120.60 72 224.60 145.80 314 222.80 47.80 41.20 59 51.40 103 95.60 109.20 109.60 181.80 210.60 226 315.20 1 2.20 2.80 7.60 4.20 12 1.20 4.40 3 9 3.80 10 3.80 5 16.40 57.20 20 83 2.40 16.60 0.80 63.20 -2.80 79 -18.60 83.40 -71.20 134.60 -171.20 166.60 -34.40 11 -106 20 -129.60 16.20 -43.40 -6.80 -194.60 -6.60 -249.40 0.20 -66.80 8.60 -142.40 22.80 -179 34 -7.20 2.20 -22.40 6.60 -34 10 -20.80 6 -63.20 20.40 -71 24 -2.20 1 -12.60 5 -23 9 -42.40 16.40 -109.40 48.80 -148 71.40 -8.20 4.80 -18 10.60 -21.60 12.80 -67.40 39.20 -148.80 102.40 -214.80 167 -70.60 69 -142.60 162.20 -190.60 246.80 -32 56.20 -87 116.40 -143.20 156.60 -30.40 21.60 -88.20 53.40 -105 57.60 -2.60 0.60 -5.40 2 -6 3 -0.60 1 -2.40 1.80 -4 1.80 -1.60 0 -7 1.80 -11.60 4 -8.80 4 -53.20 16.20 -77.20 21.20 -39.60 8.40 -112.40 11 -160 5.60z m1440.80 -891.80 c2.20 -0.40 8.80 -1.20 14.40 -1.80 20.80 -2.40 57.80 -13 75.80 -22 33.80 -17 54 -37.60 66.60 -68.80 6.40 -16.20 7 -19.40 7.80 -44.40 0.80 -25.80 0.60 -28.20 -6 -54 -32 -124.80 -167.60 -279.60 -368 -419.60 -80.20 -56.20 -200 -124 -282.40 -159.80 -8.80 -4 -20.40 -9 -26 -11.60 -5.40 -2.40 -20.80 -8.60 -34 -13.80 -13.20 -5.20 -27.20 -10.80 -31 -12.40 -10.40 -4 -40.60 -15 -44 -15.80 -1.60 -0.40 -8.40 -2.60 -15 -5 -39 -14.20 -127.60 -36.20 -170 -42.20 -6.60 -1 -14.60 -2.20 -18 -2.80 -19 -3 -41.40 -4 -87 -4 -56.20 0.20 -70.80 2 -105 13.40 -68 22.80 -100.80 65 -101 129.60 0 24.40 5 51.20 13 71 1.40 3.40 3.20 8.20 4 11 2.80 9.40 20.80 46.20 31.40 63.60 67.40 112.40 186.80 227.80 350.60 338.80 80 54.20 211.20 125.60 281 153 7.20 3 14 6 15 6.80 1.20 0.80 9.80 4.40 19 7.80 9.20 3.40 19.60 7.40 23 9 10.20 5 50.80 19 78 27.40 14.40 4.20 27.80 8.60 30 9.60 14.80 7 108.80 27.40 153 33.20 4.80 0.60 9.40 1.40 10.20 1.80 0.60 0.60 13.20 1.40 28 2.20 14.80 0.80 27.20 1.80 27.80 2.20 1 1 50.20 -1 58.80 -2.40z"/>
 </g>
</svg>