<?xml version="1.0" encoding="utf-8"?>
<!DOCTYPE svg PUBLIC "-//W3C//DTD SVG 1.0//EN" "http://www.w3.org/TR/2001/REC-SVG-20010904/DTD/svg10.dtd">
<svg version="1.0" xmlns="http://www.w3.org/2000/svg" width="512px" height="512px" viewBox="0 0 512 512" preserveAspectRatio="xMidYMid meet">
 <g fill="#00bbd3">
  <path d="M0 256 l0 -256 256 0 256 0 0 256 0 256 -256 0 -256 0 0 -256z m177.10 133.95 c0.45 -0.25 2 -0.45 3.45 -0.45 1.60 0 2.95 -0.30 3.45 -0.75 0.45 -0.40 3.70 -1.60 7.25 -2.75 3.95 -1.20 7.35 -2.60 8.60 -3.50 1.15 -0.85 2.95 -1.90 4 -2.40 1.05 -0.45 3.20 -1.80 4.75 -3 1.55 -1.15 3 -2.10 3.20 -2.10 0.65 0 9.05 -7.95 12.55 -11.95 3.10 -3.55 10.15 -13.45 10.15 -14.25 0 -0.65 6.95 -10.95 11 -16.25 7.15 -9.45 16.55 -19.25 25 -25.95 1.25 -1 2.65 -2.25 3.15 -2.70 0.50 -0.50 1.75 -1.45 2.75 -2.10 1.05 -0.65 2.15 -1.55 2.55 -2 0.35 -0.45 0.95 -0.80 1.25 -0.80 0.35 0 1.35 -0.65 2.30 -1.50 0.95 -0.80 2 -1.45 2.30 -1.50 0.30 0 0.95 -0.45 1.45 -1 0.50 -0.55 1.20 -1 1.50 -1 0.35 0 1.45 -0.65 2.50 -1.50 1 -0.80 2.30 -1.60 2.90 -1.80 0.60 -0.20 1.65 -0.70 2.35 -1.20 2.35 -1.65 9.15 -5 10.10 -5 0.55 0 1.55 -0.45 2.25 -1 0.70 -0.55 1.70 -1 2.15 -1 0.50 0 1.15 -0.35 1.50 -0.75 0.35 -0.40 0.85 -0.75 1.10 -0.75 0.30 0 1.20 -0.35 2.05 -0.70 3.40 -1.60 11.10 -4.10 14.10 -4.65 0.85 -0.15 1.75 -0.45 2 -0.65 0.60 -0.45 6.20 -1.85 9.90 -2.50 1.45 -0.25 4.05 -0.80 5.85 -1.20 8.15 -1.75 18.60 -2.40 33.70 -2.10 8 0.20 16.25 0.35 18.30 0.30 3.75 0 8 -0.70 9.60 -1.55 0.50 -0.25 1.65 -0.45 2.60 -0.45 0.90 0 1.95 -0.35 2.30 -0.75 0.35 -0.40 0.85 -0.75 1.10 -0.75 0.25 0 2.20 -0.80 4.30 -1.85 3 -1.40 4.75 -2.75 7.85 -5.85 6.20 -6.25 8.25 -11.10 8.25 -19.40 0 -7.60 -1.85 -13.95 -7 -24.15 -13.45 -26.80 -44.20 -56.35 -83 -79.85 -12.60 -7.65 -28.40 -15.85 -39.40 -20.45 -2.65 -1.10 -5.30 -2.20 -5.85 -2.45 -0.55 -0.25 -2.25 -0.95 -3.75 -1.50 -1.50 -0.60 -3.20 -1.30 -3.75 -1.55 -3.50 -1.55 -17.70 -6.05 -24.75 -7.85 -15.65 -4 -27.10 -5.70 -38.75 -5.75 -25.20 -0.05 -41.60 9.65 -44.55 26.30 -0.60 3.30 -0.65 4.95 -0.20 8.35 0.50 4 1.55 8.45 2.55 10.75 0.25 0.55 0.90 2.25 1.45 3.75 1.25 3.35 2.50 5.50 8.05 13.80 8.10 12.05 14.70 25.45 18.75 38.20 2.40 7.35 2.65 8.30 3.45 11.50 0.45 1.80 1 4.05 1.25 5 0.65 2.55 2.30 12.95 3.05 19 0.90 6.85 0.90 29.15 0 35.75 -2.95 23.25 -8.10 40.25 -17.70 58.75 -4.20 8.10 -6 10.70 -10.35 15 -5.15 5.15 -10.20 7.95 -19 10.60 -3.65 1.05 -17.40 0.90 -21.75 -0.30 -15.10 -4.10 -25.95 -14.95 -29.75 -29.75 -1.55 -6.15 -1.45 -17.05 0.30 -23.20 2.80 -10.10 8.95 -18.40 17.60 -23.70 1.60 -1 4.10 -2.25 8.35 -4.20 4.35 -1.95 18.35 -2.60 24.90 -1.15 9.90 2.25 19.25 8.55 24.45 16.50 1.15 1.75 2.20 3.05 2.40 2.95 0.20 -0.10 0.75 -1.60 1.20 -3.35 0.50 -1.75 1.10 -3.70 1.35 -4.40 0.20 -0.70 0.85 -3.40 1.45 -6 0.55 -2.60 1.25 -5.75 1.50 -7 0.85 -3.85 2.50 -17.45 2.50 -20.45 0 -2.75 -0.05 -2.85 -2.10 -4.25 -3.50 -2.30 -14.85 -7.65 -19.15 -9 -4.75 -1.55 -9.60 -2.65 -14.75 -3.35 -5.05 -0.75 -18.85 -0.25 -23.25 0.75 -4.45 1 -9.20 2.30 -10.50 2.80 -0.55 0.20 -2.35 0.90 -4 1.55 -9.75 3.65 -19.40 10.05 -27.50 18.20 -11.55 11.60 -18.85 25.10 -22.55 41.75 -1.45 6.50 -1.35 22.40 0.15 29.25 1.30 5.95 3.20 12 4.90 15.65 0.70 1.45 1.25 2.75 1.25 2.85 0 0.15 1.15 2.35 2.55 4.85 8 14.40 21.05 26.75 35.45 33.50 5.85 2.75 6.95 3.20 11.25 4.55 5.40 1.75 10.75 2.90 15.25 3.40 4.55 0.45 19.40 0.05 20.60 -0.60z"/>
  <path d="M346.50 262.80 c-5.65 -0.80 -13.80 -2.45 -17.55 -3.60 -7.45 -2.25 -9.55 -2.90 -13.45 -4.30 -2.35 -0.80 -4.70 -1.65 -5.25 -1.90 -0.55 -0.25 -3.80 -1.60 -7.25 -3.05 -12.30 -5.10 -29.05 -14.30 -41 -22.40 -6.10 -4.15 -5.90 -4 -14.85 -11.05 -19.80 -15.65 -33.35 -32.10 -38.70 -47 -1 -2.80 -1.15 -4.25 -1.15 -10.25 -0.05 -6.55 0.05 -7.20 1.25 -9.80 1.35 -2.85 5.60 -7.45 6.90 -7.45 0.40 0 1.20 -0.40 1.75 -0.90 5.45 -4.85 27 -5.35 45.55 -1.15 6.75 1.55 19.95 5.70 25 7.85 0.85 0.35 3.75 1.55 6.50 2.70 7.65 3.20 14.95 6.85 27 13.50 6.80 3.75 21.05 13.45 28.25 19.25 22.50 18 36.15 35.15 40.30 50.65 0.95 3.55 0.90 12.70 -0.05 15.50 -2.25 6.35 -7.35 10.50 -16 12.90 -4.05 1.10 -20.65 1.40 -27.25 0.50z"/>
 </g>
 <g fill="#ffd019">
  <path d="M155 392.05 c-4.55 -0.50 -9.85 -1.70 -15.25 -3.40 -4.30 -1.35 -5.40 -1.80 -11.25 -4.55 -14.40 -6.75 -27.45 -19.10 -35.45 -33.50 -1.40 -2.50 -2.55 -4.70 -2.55 -4.85 0 -0.10 -0.55 -1.40 -1.25 -2.85 -1.70 -3.65 -3.60 -9.70 -4.90 -15.65 -0.95 -4.35 -1.10 -6.50 -1.10 -16.50 0 -12.55 0.35 -15.15 3.40 -24.75 7.15 -22.70 25.85 -42.75 47.60 -50.95 1.65 -0.65 3.45 -1.35 4 -1.55 1.25 -0.50 5.95 -1.75 10.50 -2.80 4.35 -1.05 20.90 -1.50 26.25 -0.75 5.15 0.70 10 1.80 14.75 3.35 4.30 1.35 15.65 6.70 19.15 9 l2.10 1.40 0 4.35 c0 4.20 -1.50 17.35 -2.50 21.95 -3.10 14.25 -5.90 24 -6.90 24 -0.20 0 -1.25 -1.65 -2.35 -3.65 -2.35 -4.20 -8.55 -10.70 -13 -13.60 -6.25 -4.10 -13.75 -6.25 -21.70 -6.25 -4.70 0 -11.05 0.95 -13.30 1.95 -4.25 1.95 -6.75 3.20 -8.35 4.20 -8.65 5.30 -14.80 13.60 -17.60 23.70 -2.35 8.40 -1.60 18.90 1.90 26.85 5 11.25 15.10 19.70 27.55 23.10 4.30 1.15 15.25 1.30 18.75 0.30 8.80 -2.65 13.85 -5.45 19 -10.60 4.35 -4.30 6.15 -6.90 10.35 -15 12.35 -23.80 18.35 -48.35 18.35 -75 0 -6.20 -0.30 -13.60 -0.65 -16.50 -0.70 -6 -2.40 -16.40 -3.05 -19 -0.25 -0.95 -0.80 -3.20 -1.25 -5 -0.80 -3.20 -1.05 -4.15 -3.45 -11.50 -4.05 -12.75 -10.65 -26.15 -18.75 -38.20 -5.55 -8.30 -6.80 -10.45 -8.05 -13.80 -0.55 -1.50 -1.20 -3.20 -1.45 -3.75 -2.25 -5.35 -3.45 -14.60 -2.60 -20.55 0.75 -5.25 1.55 -7.45 4.40 -11.80 2.85 -4.35 6.35 -7.35 11.65 -10.10 8.15 -4.25 17.05 -6 30.25 -5.95 13.10 0 24 1.55 40.25 5.75 7.05 1.80 21.25 6.30 24.75 7.85 0.55 0.25 2.25 0.95 3.75 1.55 1.50 0.55 3.20 1.25 3.75 1.50 0.55 0.25 3.20 1.35 5.85 2.45 23.35 9.75 51.95 26.95 72.90 43.80 23.20 18.70 40.30 38.20 49.50 56.50 5.45 10.80 7.10 16.75 7.10 25.75 -0.05 9.70 -1.85 14.20 -8.35 20.80 -3.10 3.10 -4.85 4.45 -7.85 5.85 -2.10 1.05 -4.05 1.85 -4.30 1.85 -0.25 0 -0.75 0.35 -1.10 0.75 -0.35 0.40 -1.40 0.75 -2.30 0.75 -0.95 0 -2.10 0.20 -2.60 0.45 -3.10 1.65 -8.60 1.90 -29.35 1.30 -13.55 -0.40 -24.20 0.30 -32.25 2.05 -1.80 0.40 -4.40 0.95 -5.85 1.20 -3.70 0.65 -9.30 2.05 -9.90 2.50 -0.25 0.20 -1.15 0.50 -2 0.65 -3 0.55 -10.70 3.05 -14.10 4.65 -0.85 0.35 -1.75 0.70 -2.05 0.70 -0.25 0 -0.75 0.35 -1.10 0.75 -0.35 0.40 -1 0.75 -1.50 0.75 -0.45 0 -1.45 0.45 -2.15 1 -0.70 0.55 -1.70 1 -2.25 1 -0.95 0 -7.75 3.35 -10.10 5 -0.70 0.50 -1.75 1 -2.35 1.20 -0.60 0.20 -1.90 1 -2.90 1.80 -1.05 0.85 -2.15 1.50 -2.50 1.50 -0.30 0 -1 0.45 -1.50 1 -0.50 0.55 -1.15 1 -1.45 1 -0.30 0.05 -1.35 0.70 -2.30 1.50 -0.95 0.85 -1.95 1.50 -2.30 1.50 -0.30 0 -0.90 0.35 -1.25 0.80 -0.40 0.45 -1.50 1.35 -2.55 2 -1 0.65 -2.25 1.60 -2.75 2.10 -0.50 0.45 -1.90 1.70 -3.15 2.70 -8.45 6.70 -17.85 16.50 -25 25.95 -4.05 5.30 -11 15.60 -11 16.25 0 0.80 -7.05 10.70 -10.15 14.25 -3.50 4 -11.90 11.95 -12.55 11.95 -0.20 0 -1.65 0.95 -3.20 2.10 -1.55 1.20 -3.70 2.55 -4.75 3 -1.05 0.50 -2.85 1.55 -4 2.40 -1.25 0.90 -4.65 2.30 -8.60 3.50 -3.55 1.15 -6.80 2.35 -7.25 2.75 -0.50 0.45 -1.85 0.75 -3.45 0.75 -1.45 0 -3 0.20 -3.50 0.50 -1.20 0.65 -18.80 1.05 -23.55 0.55z m217.25 -131.30 c15.15 -4.10 20.20 -14.55 14.60 -30.05 -3 -8.30 -10.95 -19.70 -20.55 -29.60 -5.75 -5.90 -17.05 -15.70 -24.80 -21.40 -4.05 -3 -18.30 -12.30 -21.75 -14.20 -12.05 -6.65 -19.35 -10.30 -27 -13.50 -2.75 -1.15 -5.65 -2.35 -6.50 -2.70 -2.10 -0.90 -12.85 -4.55 -17 -5.75 -9.70 -2.90 -23 -5 -31 -5.05 -8.25 0 -17 1.85 -19.55 4.10 -0.55 0.50 -1.35 0.90 -1.75 0.90 -1.30 0 -5.55 4.60 -6.90 7.45 -1.15 2.50 -1.30 3.35 -1.25 8.30 0.05 6.05 0.75 8.85 4.10 15.50 8 16.10 26.70 35.10 50.60 51.30 11.95 8.10 28.70 17.30 41 22.40 3.45 1.45 6.70 2.80 7.25 3.05 0.55 0.25 2.90 1.10 5.25 1.90 3.90 1.40 6 2.05 13.45 4.30 3.75 1.15 11.90 2.80 17.55 3.60 6.35 0.85 20.15 0.60 24.25 -0.55z"/>
 </g>
</svg>