<?xml version="1.0" encoding="utf-8"?>
<!DOCTYPE svg PUBLIC "-//W3C//DTD SVG 1.0//EN" "http://www.w3.org/TR/2001/REC-SVG-20010904/DTD/svg10.dtd">
<svg version="1.0" xmlns="http://www.w3.org/2000/svg" width="3545px" height="3545px" viewBox="0 0 3545 3545" preserveAspectRatio="xMidYMid meet">
 <g fill="#00558b">
  <path d="M0 1771.50 l0 -1771.50 1771.50 0 1771.50 0 0 1771.50 0 1771.50 -1771.50 0 -1771.50 0 0 -1771.50z m1159.87 945.73 c11.40 -1.20 30.79 -3.80 42.79 -6 l21.99 -4 26.99 -7.80 c101.37 -29.19 187.55 -84.98 254.73 -165.15 18.19 -21.59 36.79 -47.99 48.19 -67.98 57.58 -101.37 139.76 -202.94 227.94 -281.72 51.99 -46.39 83.38 -70.78 138.16 -107.37 11.20 -7.40 25.19 -16.40 30.99 -19.79 6 -3.40 18.39 -10.80 27.79 -16.40 56.78 -33.39 132.76 -68.18 200.94 -91.57 87.58 -30.19 168.35 -47.99 267.92 -59.18 l25.99 -3 70.98 -1.20 70.98 -1 31.99 2.20 c17.60 1.40 41.19 3 52.19 3.60 l20.39 1.20 19.59 -2.40 c11 -1.40 29.19 -4.40 40.79 -6.60 l20.99 -4 22.99 -7.60 c41.39 -13.60 73.58 -31.19 99.57 -54.58 l12.60 -11.20 11 -13.60 10.80 -13.60 8.80 -17.99 c9.40 -19.39 13 -29.59 18.59 -52.99 l3.60 -15 -0.20 -25.99 -0.20 -25.99 -4.40 -20.59 c-6.40 -31.59 -9.60 -42.79 -20.59 -72.38 l-10 -26.99 -16.40 -32.19 -16.60 -32.39 -15.80 -25.19 c-60.78 -97.37 -162.35 -210.74 -273.72 -305.11 -5.40 -4.60 -12.20 -10.40 -15 -12.80 -45.79 -38.99 -128.76 -100.97 -183.95 -137.36 -38.79 -25.59 -56.78 -37.19 -62.98 -40.59 -3.20 -1.80 -11.80 -7 -18.99 -11.60 -26.19 -16.60 -57.38 -34.59 -113.97 -65.18 -56.38 -30.39 -93.37 -48.39 -172.95 -84.38 -21.59 -9.80 -85.98 -35.39 -115.97 -46.19 -121.77 -43.99 -234.73 -71.78 -344.90 -85.18 l-28.99 -3.60 -61.98 0 -61.98 0 -23.99 3.60 -23.99 3.60 -23.99 6 -23.99 6 -20.59 7.80 -20.79 7.80 -16.60 9.20 c-21.39 11.60 -38.59 24.59 -55.18 41.39 l-13.20 13.40 -9.20 13.80 c-9.80 14.60 -14.40 24.19 -22.79 47.19 l-5 14 -2.80 15 -2.60 15.20 -0.20 19.99 0 19.99 3 19.59 3 19.59 7.20 25.39 7.20 25.39 11.20 26.99 c11.40 27.79 18.79 41.79 28.39 53.98 14.20 18.39 43.79 63.58 68.38 104.97 11.40 19.19 38.39 71.98 49.59 96.97 32.59 72.78 55.18 138.56 72.78 211.94 18.59 77.38 27.39 141.36 31.39 227.54 l2 47.39 -1.20 37.99 c-1.40 41.39 -5.60 98.37 -9 118.97 -1.20 7.20 -4.80 29.19 -8 48.99 l-5.80 35.99 -9 36.99 c-11.80 48.99 -36.99 128.76 -48.19 152.96 -1.40 3.40 -4.60 11 -7 17 -14.40 36.79 -44.19 97.57 -68.38 139.36 l-12.40 21.59 -10.40 13 c-19.59 24.99 -44.19 47.19 -70.78 64.58 l-17 11 -19.99 9 c-20.19 9.20 -35.39 14.20 -62.98 20.79 l-15 3.60 -47.99 0 -47.99 -0.20 -17.99 -4.40 c-9.80 -2.40 -25.19 -6.80 -33.99 -9.80 l-16 -5.20 -21.39 -10.80 -21.39 -10.60 -17 -12.60 c-48.79 -35.99 -82.58 -80.98 -103.17 -137.36 l-6.20 -17 -4 -18.99 -4 -18.99 -1.20 -35.39 -1.20 -35.39 2.60 -19.59 c5.60 -45.59 21.79 -87.58 49.39 -128.96 l9.60 -14.40 22.99 -23.39 22.99 -23.19 18.59 -12.40 18.59 -12.40 18.39 -9 18.39 -9 22.19 -6.80 21.99 -7 19.99 -3 19.79 -3 29.99 0 29.99 0 19.79 3 19.59 3 20.39 6.20 20.19 6.20 17.99 8.40 c32.59 15.40 63.78 37.79 85.98 61.58 l12.20 12.80 5.40 -14 c13.60 -35.99 26.39 -90.97 33.19 -142.96 l4.20 -31.79 0 -28.99 0 -28.99 -7.40 -2.40 c-4.20 -1.40 -15.20 -5.40 -24.59 -9.20 -9.40 -3.60 -30.19 -10.20 -45.99 -14.60 l-28.99 -8 -25.99 -4.60 -25.99 -4.40 -51.99 0 -51.99 0 -24.99 4.60 c-30.19 5.40 -67.98 15.40 -94.97 25.19 l-19.99 7.20 -29.99 14.80 c-56.38 27.99 -93.37 54.38 -137.16 97.37 -15.60 15.60 -44.79 48.99 -51.19 58.98 -2 3 -4.60 6.60 -5.80 8 -3.80 4 -38.79 61.18 -38.79 63.38 0 0.60 -3.60 8.60 -8.20 17.60 -17.40 35.59 -32.39 83.58 -42.19 135.56 l-4.60 24.99 0 52.99 0 52.99 4.60 24.99 c6 30.99 16 68.78 25.19 94.57 6.80 18.79 21.99 52.79 27.99 63.38 1.60 2.80 5.40 9.60 8.40 15 2.80 5.60 13 21.19 22.39 34.99 42.79 62.58 98.37 115.17 161.35 152.56 14.80 8.80 67.38 35.39 69.98 35.39 0.60 0 9 3 18.59 6.80 32.79 12.80 86.98 25.39 125.36 28.99 10 0.80 29.79 1.80 44.19 2 l26.39 0.20 20.59 -2z"/>
  <path d="M2411.32 1837.28 l-26.99 -1.40 -28.99 -4.40 c-58.18 -8.60 -103.97 -19.19 -163.95 -37.79 -29.59 -9.20 -78.58 -26.19 -86.98 -30.19 -2.20 -1 -13 -5.40 -23.99 -9.80 -18.99 -7.20 -39.59 -16 -61.98 -26.19 -21.99 -9.80 -94.97 -45.99 -108.97 -53.98 -20.19 -11.60 -40.19 -22.99 -56.98 -32.59 -74.98 -42.99 -155.36 -99.37 -229.34 -160.55 -55.78 -46.39 -115.77 -106.57 -155.96 -156.76 -48.59 -60.78 -81.78 -120.77 -95.77 -173.15 l-4.40 -15.80 -0.80 -31.99 -1 -31.99 3.20 -14 3.20 -14 7.40 -14.40 7.20 -14.60 10 -11 9.80 -11.20 11.40 -7.60 c15.60 -10.60 28.79 -17 49.39 -23.99 l17.79 -6 18.99 -3.60 18.99 -3.60 58.98 0 58.98 0 20.99 2.80 c11.60 1.40 37.19 5.80 56.98 9.40 l35.99 7 37.59 10 c65.58 17.40 139.36 43.99 209.94 75.18 53.98 23.99 151.56 74.78 187.35 97.57 3.80 2.40 17.79 11 30.99 19.19 202.74 125.16 365.50 286.92 423.08 420.68 l9.60 21.99 5.60 19.99 5.60 19.99 0 36.99 0 36.99 -6.60 17.40 -6.80 17.40 -9.60 12.80 -9.60 12.60 -10 8.40 -10 8.40 -16.60 8.80 -16.80 8.80 -13 4.20 c-7.20 2.20 -21.99 6 -32.99 8.20 l-19.99 4.20 -27.99 1.80 c-30.39 2.20 -32.99 2.20 -72.98 -0.20z"/>
 </g>
 <g fill="#f0cb17">
  <path d="M1062.70 2723.03 c-38.39 -3.60 -92.57 -16.20 -125.36 -28.99 -9.60 -3.80 -17.99 -6.80 -18.59 -6.80 -2.60 0 -55.18 -26.59 -69.98 -35.39 -47.19 -27.99 -91.97 -66.18 -129.76 -110.57 -15.60 -18.19 -45.19 -60.58 -53.98 -76.98 -3 -5.40 -6.80 -12.20 -8.40 -15 -1.60 -2.80 -7 -13.80 -11.80 -24.39 -24.19 -51.99 -40.79 -114.37 -45.79 -171.55 l-2.20 -26.99 1.20 -39.99 1.40 -39.99 4.40 -23.99 c9.20 -50.39 24.39 -98.97 41.79 -134.56 4.60 -9 8.20 -17 8.20 -17.60 0 -2.20 34.99 -59.38 38.79 -63.38 1.20 -1.40 3.80 -5 5.80 -8 6.40 -10 35.59 -43.39 51.19 -58.98 43.79 -42.99 80.78 -69.38 137.16 -97.37 l29.99 -14.80 19.99 -7.20 c26.99 -9.80 64.78 -19.79 94.97 -25.19 l24.99 -4.60 57.98 0 57.98 0 25.99 4.40 25.99 4.60 28.99 8 c15.80 4.40 36.59 11 45.99 14.60 9.40 3.80 20.39 7.80 24.59 9.20 l7.40 2.40 0.20 7.20 c0 4 0 19.99 -0.20 35.39 l-0.20 27.99 -4 31.59 -4.20 31.39 -5.40 26.59 c-6.40 29.79 -17.20 68.18 -24.59 87.58 -2.80 7 -5.60 14.60 -6.40 16.80 l-1.40 3.80 -16.80 -18.19 -17 -18.19 -12.80 -10.20 c-18.79 -14.80 -39.79 -27.79 -60.18 -37.39 l-17.99 -8.40 -20.19 -6.20 -20.39 -6.20 -19.59 -3 -19.79 -3 -23.99 0 -23.99 0 -19.79 3 -19.99 3 -21.99 7 -22.19 6.80 -18.39 9 -18.39 9 -18.59 12.40 -18.59 12.40 -22.99 23.19 -22.99 23.39 -9.60 14.40 c-27.59 41.39 -43.79 83.38 -49.39 129.16 l-2.60 19.79 1.20 29.19 1.20 29.19 4 18.99 4 18.99 6.20 17 c20.59 56.38 54.38 101.37 103.17 137.36 l17 12.60 21.39 10.60 21.39 10.80 16 5.20 c8.80 3 24.19 7.40 33.99 9.80 l17.99 4.40 41.99 0.20 41.99 0 15 -3.60 c27.59 -6.60 42.79 -11.60 62.98 -20.79 l19.99 -9 17 -11 c26.59 -17.40 51.19 -39.59 70.78 -64.58 l10.40 -13 12.40 -21.59 c24.19 -41.79 53.98 -102.57 68.38 -139.36 2.40 -6 5.60 -13.60 7 -17 11.20 -24.19 36.39 -104.17 47.99 -151.96 18.19 -75.58 27.19 -139.56 30.99 -221.14 l2.20 -45.19 -2 -47.99 c-2.60 -55.58 -4.40 -76.58 -11.40 -123.57 -16.40 -112.97 -44.99 -209.94 -92.77 -316.91 -11.20 -24.99 -38.19 -77.78 -49.59 -96.97 -24.59 -41.39 -54.18 -86.58 -68.38 -104.97 -9.60 -12.20 -17 -26.19 -28.39 -53.98 l-11.20 -26.99 -7.20 -25.39 -7.20 -25.39 -3 -19.59 -3 -19.59 0 -25.99 0.20 -25.99 2.60 -15.20 2.80 -15 5 -14 c8.40 -22.99 13 -32.59 22.79 -47.19 l9.20 -13.80 13.20 -13.40 c16.60 -16.80 33.79 -29.79 55.18 -41.39 l16.60 -9.20 20.79 -7.80 20.59 -7.80 23.99 -6 23.99 -6 23.99 -3.60 23.99 -3.60 67.98 0 67.98 0 28.99 3.60 c110.37 13.40 223.14 41.19 344.90 85.18 29.99 10.80 94.37 36.39 115.97 46.19 79.58 35.99 116.57 53.98 172.95 84.38 56.58 30.59 87.78 48.59 113.97 65.18 7.20 4.60 15.80 9.80 18.99 11.60 6.20 3.40 24.19 15 62.98 40.59 55.18 36.39 138.16 98.37 183.95 137.36 2.80 2.40 9.60 8.20 15 12.80 71.38 60.58 149.16 139.56 202.54 205.54 23.39 29.19 53.58 71.38 71.18 99.57 l15.80 25.19 16.60 32.39 16.40 32.19 10 27.19 c10.40 27.99 15.40 45.59 21.59 76.78 l3.60 17.99 0.20 30.99 0 30.99 -3.60 15 c-5.60 23.39 -9.20 33.59 -18.59 52.99 l-8.80 17.99 -10.80 13.60 -11 13.60 -12.60 11.20 c-25.99 23.39 -58.18 40.99 -99.57 54.58 l-22.99 7.60 -20.99 4 c-18.19 3.60 -36.19 6 -68.98 9.40 l-8 0.80 -29.99 -3.40 -29.99 -3.20 -79.98 -0.20 -79.98 0 -24.99 2.60 c-27.99 2.80 -99.57 13.20 -120.97 17.40 -125.36 24.99 -256.33 73.98 -358.90 134.56 -9.40 5.60 -21.79 13 -27.79 16.40 -9.60 5.60 -39.59 25.39 -58.18 38.19 -76.18 52.59 -156.76 126.36 -220.14 201.74 -44.19 52.59 -88.18 114.97 -118.77 168.95 -11.40 19.99 -29.99 46.39 -48.19 67.98 -67.18 80.18 -153.36 135.96 -254.73 165.15 l-26.99 7.80 -21.99 4 c-12 2.20 -31.39 4.80 -42.79 6 l-20.59 2 -32.39 -0.20 c-17.60 -0.20 -40.19 -1.20 -50.19 -2z m1415.60 -891.55 l27.99 -1.80 19.99 -4.20 c11 -2.20 25.79 -6 32.99 -8.20 l13 -4.20 16.80 -8.80 16.60 -8.80 10 -8.40 10 -8.40 9.60 -12.60 9.60 -12.80 6.60 -17.40 6.60 -17.40 0 -30.99 0 -30.99 -5.40 -19.99 -5.60 -19.99 -9.60 -21.99 c-28.19 -65.78 -79.98 -136.56 -153.16 -209.54 -76.58 -76.58 -169.75 -149.36 -269.92 -211.14 -13.20 -8.20 -27.19 -16.80 -30.99 -19.19 -35.79 -22.79 -133.36 -73.58 -187.35 -97.57 -70.58 -31.19 -144.36 -57.78 -209.94 -75.18 l-37.59 -10 -35.99 -7 c-19.79 -3.60 -45.39 -8 -56.98 -9.40 l-20.99 -2.80 -52.99 0 -52.99 0 -18.99 3.60 -18.99 3.60 -17.79 6 c-20.59 7 -33.79 13.40 -49.39 23.99 l-11.40 7.60 -9.80 11.20 -10 11 -7.20 14.60 -7.40 14.40 -3.20 14 -3.20 14 1 25.99 1 25.99 4.20 15.80 c21.99 82.78 90.37 180.75 193.95 278.12 35.59 33.39 51.79 47.59 89.57 77.58 61.18 48.59 134.56 98.57 197.54 134.76 16.80 9.60 36.79 20.99 56.98 32.59 14 8 86.98 44.19 108.97 53.98 22.39 10.20 42.99 18.99 61.98 26.19 11 4.40 21.79 8.80 23.99 9.80 8.40 4 57.38 20.99 86.98 30.19 59.98 18.59 105.77 29.19 163.95 37.79 l28.99 4.40 26.99 1.40 c14.80 1 28.39 1.80 29.99 1.80 1.60 0.20 15.60 -0.60 30.99 -1.60z"/>
 </g>
</svg>