<svg xmlns="http://www.w3.org/2000/svg" viewBox="-180 201 1080 1080">
  <path fill="#3d155f" d="M-180 201H900v1080H-180z"/>
  <path fill="#df678c" d="M310 529a317 317 0 0 1 132 41v1c30 15 59 31 93 67 31 33 69 87 47 108l-3 3c-7 4-17 6-30 6-41 0-109-20-165-52-73-42-129-104-132-138-2-23 19-32 44-35l14-1Zm-11-84c-60 0-93 32-93 62l2 14c3 13 11 26 20 41 12 21 27 47 36 80 19 66 16 165-13 222-20 39-53 57-82 57-12 0-24-3-33-9-32-20-42-74-26-106 13-27 44-40 69-40l14 2c17 4 28 15 34 23 4 4 6 7 8 7 5 0 8-18 12-39-2-10-4-19-24-27a136 136 0 0 0-96 0c-34 14-62 48-69 94-8 46 5 102 44 133a146 146 0 0 0 145 17c13-7 23-16 33-27s18-24 27-37c10-15 19-30 32-44a286 286 0 0 1 165-89c17-3 34-3 51-4 15 0 30 0 45-2 39-5 75-21 76-58 2-37-32-97-103-153a583 583 0 0 0-274-117Z"/>
</svg>
