<svg width="270" height="420" viewBox="0 0 270 420" fill="none" xmlns="http://www.w3.org/2000/svg">
<path fill-rule="evenodd" clip-rule="evenodd" d="M131.417 39.7614C126.612 34.1207 123.359 27.2078 123.903 19.4618C125.468 -2.85664 156.537 2.05314 162.58 13.3176C168.623 24.582 167.905 53.1552 160.095 55.1685C156.98 55.9714 150.344 54.0046 143.591 49.934L147.83 79.9232H122.8L131.417 39.7614Z" fill="#5F5C59"/>
<path fill-rule="evenodd" clip-rule="evenodd" d="M151.541 14.9512C148.145 16.8512 145.727 20.4114 142.818 25.0813C142.109 24.8027 141.337 24.6497 140.53 24.6497C137.074 24.6497 134.272 27.4513 134.272 30.9071C134.272 32.6615 134.994 34.2472 136.157 35.3834C134.709 37.4271 133.087 39.562 131.227 41.7649C124.289 37.6019 119.128 25.4688 125.753 13.7559C131.453 -9.70591 163.753 4.85659 169.967 0.899656C171.326 9.41355 166.945 16.2785 151.541 14.9512Z" fill="#ABAAB9"/>
<path fill-rule="evenodd" clip-rule="evenodd" d="M121.793 170.462L172.98 300.018L207.311 409.546H220.868L168.383 170.462L121.793 170.462Z" fill="#888079"/>
<path fill-rule="evenodd" clip-rule="evenodd" d="M111.485 170.462C110.94 215.989 102.991 277.283 101.721 280.121C100.874 282.013 71.6461 306.072 14.0363 352.299L23.3735 362.291C91.3478 322.657 126.908 300.198 130.053 294.911C134.772 286.982 150.133 214.017 162.465 170.462H111.485Z" fill="#5F5C59"/>
<path fill-rule="evenodd" clip-rule="evenodd" d="M12.7874 348.964C9.65148 350.072 7.49128 351.123 6.30677 352.117C4.86611 353.326 2.96523 355.33 0.604109 358.129C2.00646 359.8 14.6096 374.82 38.4136 403.189C43.2673 401.111 44.79 398.682 42.9817 395.9C41.1735 393.118 39.6937 390.788 38.5422 388.911L30.3053 360.133C30.1468 359.58 29.5695 359.259 29.0157 359.418C29.0063 359.42 28.9968 359.423 28.9874 359.426L24.5922 360.82C21.5429 359.399 19.4056 357.959 18.1804 356.498C17.1849 355.312 16.2893 353.272 15.4936 350.377L15.4936 350.377C15.1882 349.266 14.0402 348.614 12.9294 348.919C12.8816 348.932 12.8342 348.947 12.7874 348.964Z" fill="#E4E4E4"/>
<path fill-rule="evenodd" clip-rule="evenodd" d="M201.76 404.49C200.593 407.604 200.01 409.935 200.01 411.481C200.01 413.362 200.323 416.106 200.95 419.714C203.131 419.714 222.738 419.714 259.771 419.714C261.299 414.661 260.417 411.933 257.124 411.53C253.83 411.127 251.095 410.763 248.916 410.438L221.577 398.25C221.051 398.016 220.434 398.252 220.2 398.778C220.196 398.787 220.192 398.796 220.188 398.805L218.431 403.068C215.382 404.491 212.905 405.202 210.998 405.202C209.45 405.202 207.311 404.576 204.582 403.325L204.582 403.325C203.535 402.845 202.297 403.305 201.817 404.352C201.796 404.398 201.777 404.443 201.76 404.49Z" fill="#E4E4E4"/>
<path fill-rule="evenodd" clip-rule="evenodd" d="M156.208 398.265L220.664 391.269L172.895 170.462H115.164L156.208 398.265Z" fill="#737E9A"/>
<path fill-rule="evenodd" clip-rule="evenodd" d="M27.3688 336.179L69.6478 386.223C114.179 337.586 140.141 305.851 147.534 291.017C154.926 276.182 161.572 235.998 167.47 170.462H102.476C99.2542 228.117 97.0823 258.287 95.9606 260.97C94.8389 263.652 71.9749 288.722 27.3688 336.179Z" fill="#7486B3"/>
<path fill-rule="evenodd" clip-rule="evenodd" d="M215.887 157.856L246.537 187.563C255.455 191.342 262.762 195.515 268.458 200.083C269.738 201.618 271.133 204.559 265.106 203.243C259.079 201.927 252.681 200.811 251.548 202.759C250.415 204.706 253.753 207.69 251.659 210.239C250.264 211.938 245.57 206.533 237.579 194.026L205.707 175.356L215.887 157.856ZM66.0112 130.969L89.7032 131.058C71.6586 189.143 62.0799 219.556 60.9672 222.296C58.4636 228.46 63.7616 237.849 66.0272 242.894C58.6482 246.175 59.4344 234.025 50.126 238.328C41.6298 242.255 35.1667 249.371 25.3505 243.353C24.1436 242.614 22.8211 239.828 26.0164 237.651C33.9772 232.227 45.4491 222.735 46.9992 219.611C49.1129 215.351 55.4503 185.803 66.0112 130.969Z" fill="#5F5C59"/>
<path fill-rule="evenodd" clip-rule="evenodd" d="M138.205 64.1939L147.561 62.5995C162.299 114.362 238.023 149.645 242.672 168.996C244.377 176.092 239.237 179.679 241.892 181.84L229.731 190.685C227.672 188.298 223.277 192.665 214.1 189.61C204.923 186.556 138.205 125.485 138.205 64.1939Z" fill="#6A6A6A"/>
<path fill-rule="evenodd" clip-rule="evenodd" d="M153.943 71.0756C152.864 139.605 192.736 157.086 183.855 184.577C176.521 207.279 106.322 231.684 94.1747 209.43C89.2575 200.423 87.0266 189.528 86.7735 177.684C83.6688 186.784 81.2134 194.617 79.4072 201.185C76.2912 212.515 64.2113 214.316 64.2113 218.681L48.2961 214.316C49.3756 208.387 41.8728 205.499 43.8845 192.251C52.8981 132.893 77.1159 89.8669 116.538 63.1714L116.955 57.2484C117.12 54.9519 119.112 53.2204 121.409 53.3763L150.862 55.4226C153.161 55.5785 154.895 57.5711 154.735 59.8695C154.735 59.8708 154.735 59.872 154.731 59.873L153.943 71.0756Z" fill="#686363"/>
</svg>
